<svg width="249" height="114" viewBox="0 0 249 114" fill="none" xmlns="http://www.w3.org/2000/svg">
<path d="M20.683 2.15094L42.915 2.29694H56.663C59.003 2.29694 60.708 2.36993 61.782 2.51593C62.854 2.66193 64.122 3.12594 65.585 3.90594C68.218 5.27194 69.5341 9.17093 69.5341 15.6069C69.5341 21.4579 68.3131 25.0179 65.8781 26.2839C64.5111 27.0649 63.3179 27.5269 62.2939 27.6729C61.2709 27.8189 59.685 27.8929 57.541 27.8929H31.9449C31.7479 29.0629 31.2611 32.7689 30.4821 39.0089C31.5541 38.8149 33.261 38.7169 35.601 38.7169C44.864 38.7169 53.2011 42.2039 60.6121 49.1749C68.0211 56.1479 71.728 64.6789 71.728 74.7709C71.728 84.8629 68.217 93.542 61.197 100.806C54.176 108.071 45.449 111.702 35.016 111.702C25.948 111.702 17.757 109.412 10.444 104.828C8.78497 103.756 7.56696 102.83 6.78796 102.049L5.61804 101.025C1.91104 97.807 0.0600586 94.882 0.0600586 92.249C0.0600586 89.617 1.86295 86.4489 5.47095 82.7419C8.39695 79.5239 11.223 77.9149 13.954 77.9149C16.683 77.9149 19.95 79.4759 23.754 82.5959C25.509 84.6429 28.555 85.6669 32.895 85.6669C37.233 85.6669 40.451 84.7409 42.548 82.8879C44.644 81.0369 45.693 78.4769 45.693 75.2089C45.693 71.9429 44.546 69.3579 42.256 67.4569C39.963 65.5559 37.356 64.6049 34.431 64.6049C31.505 64.6049 29.165 65.4819 27.41 67.2379C24.777 69.4819 22.119 70.6019 19.438 70.6019C16.755 70.6019 13.684 69.6769 10.224 67.8229C6.761 65.9719 4.495 64.4839 3.422 63.3619C2.348 62.2419 1.81396 61.0469 1.81396 59.7789C1.81396 58.5129 2.78801 50.663 4.73901 36.231C6.68801 21.801 7.71306 14.2909 7.81006 13.7069C7.90706 13.1219 8.24898 12.0979 8.83398 10.6359C9.41898 9.17293 10.125 7.85695 10.955 6.68695C11.782 5.51695 13.0501 4.46997 14.7581 3.54297C16.4641 2.61497 18.438 2.15094 20.683 2.15094Z" fill="#E6E5D1"/>
<path d="M135.414 10.051C136.193 8.68696 137.535 7.73597 139.436 7.19897C141.337 6.66397 143.824 6.39496 146.895 6.39496C149.966 6.39496 152.428 6.71201 154.281 7.34601C156.133 7.98101 157.449 9.00499 158.23 10.417C159.009 11.832 159.473 13.123 159.62 14.293C159.767 15.463 159.84 17.17 159.84 19.412V100.733C159.84 104.536 159.376 107.34 158.45 109.143C157.522 110.949 156.11 112.141 154.209 112.726C152.308 113.311 149.941 113.603 147.115 113.603C144.286 113.603 142.044 113.361 140.386 112.872C138.727 112.385 137.461 111.8 136.583 111.117C135.706 110.436 135.07 109.46 134.682 108.192C134.097 106.535 133.804 104.001 133.804 100.586V82.742H94.167C87.341 82.742 83.294 80.891 82.027 77.184C81.539 75.625 81.297 73.528 81.297 70.895C81.297 68.262 81.443 66.313 81.735 65.044L93.875 16.047C94.46 13.805 94.972 12.098 95.411 10.928C95.849 9.75798 96.726 8.63896 98.043 7.56396C99.359 6.49196 101.042 5.95496 103.09 5.95496C105.137 5.95496 107.379 6.298 109.818 6.979C116.642 8.833 120.056 11.952 120.056 16.339C120.056 17.9 119.713 19.948 119.033 22.482C118.934 22.679 118.887 22.825 118.887 22.921L109.965 58.609H133.805V18.68C133.805 16.438 133.878 14.781 134.025 13.707C134.171 12.636 134.633 11.418 135.414 10.051Z" fill="#E6E5D1"/>
<path d="M235.979 83.9109C239.976 83.9109 242.829 84.375 244.536 85.301C246.241 86.229 247.388 87.641 247.974 89.543C248.559 91.444 248.851 93.9309 248.851 97.0029C248.851 100.074 248.534 102.538 247.901 104.389C247.265 106.243 246.218 107.511 244.756 108.192C242.61 109.362 239.586 109.947 235.688 109.947H178.5C174.99 109.947 171.967 108.631 169.432 105.998C166.896 103.366 165.629 100.294 165.629 96.7839C165.629 91.5189 167.457 86.669 171.114 82.231C174.77 77.795 179.181 73.992 184.35 70.822C189.517 67.655 194.684 64.5329 199.854 61.4619C205.021 58.3899 209.434 54.905 213.09 51.004C216.746 47.106 218.575 42.96 218.575 38.572C218.575 37.695 218.232 36.451 217.551 34.843C216.867 33.234 216.112 31.9179 215.284 30.8939C214.454 29.8699 213.163 28.9189 211.408 28.0419C209.652 27.1639 207.215 26.7249 204.095 26.7249C200.973 26.7249 198.268 27.8729 195.978 30.1619C193.686 32.4539 192.394 34.722 192.102 36.963L191.517 40.327V41.2039C191.517 43.3499 191.444 44.9589 191.297 46.0309C191.151 47.1049 190.687 48.323 189.907 49.687C188.445 52.027 184.642 53.197 178.499 53.197C171.673 53.197 167.626 51.3459 166.359 47.6389C165.87 46.0799 165.628 43.5939 165.628 40.1799C165.628 30.0399 169.26 20.9469 176.524 12.9019C183.787 4.85792 193.294 0.835938 205.045 0.835938C216.794 0.835938 226.325 4.90895 233.639 13.049C240.952 21.1919 244.609 30.4789 244.609 40.9119C244.609 46.4699 243.388 51.7349 240.953 56.7079C238.515 61.6809 235.589 65.6799 232.177 68.7009C224.96 75.1359 218.525 79.476 212.87 81.718L209.214 83.181V83.9119L235.979 83.9109Z" fill="#E6E5D1"/>
</svg>
